<svg width="257" height="60" viewBox="0 0 257 60" fill="none" xmlns="http://www.w3.org/2000/svg">
<rect width="257" height="60" fill="white"/>
<path d="M64.9643 23.3403L64.9188 23.3079C64.9153 23.306 64.9124 23.3036 64.9105 23.3008L36.5012 3L8.09221 23.3003C8.08893 23.3027 8.0838 23.3073 8.0838 23.3073L8.03694 23.3398C3.69282 26.4614 0.933535 30.5311 0.197762 34.9019C-0.53801 39.2728 0.79194 43.694 3.97618 47.4627C7.16044 51.2316 12.0162 54.1316 17.7717 55.7017C23.5272 57.2718 29.852 57.4223 35.7408 56.1287C36.2361 56.0205 36.7659 56.0205 37.2615 56.1287C43.1496 57.4217 49.4741 57.2713 55.2292 55.7009C60.9843 54.1305 65.8397 51.2307 69.0237 47.4622C72.2078 43.6937 73.5378 39.2728 72.8024 34.9022C72.0668 30.5315 69.308 26.4619 64.9643 23.3403ZM18.1941 36.727C18.0558 36.8258 17.9461 36.9433 17.8713 37.0724C17.7965 37.2013 17.758 37.3396 17.758 37.4794C17.8085 41.0623 19.2256 44.5673 21.8566 47.6177C21.9165 47.6868 21.944 47.7679 21.9354 47.8489C21.9271 47.9298 21.8829 48.0068 21.8095 48.069C21.7358 48.1311 21.6368 48.1749 21.5264 48.1943C21.4159 48.2137 21.2997 48.2077 21.1942 48.177C19.2163 47.5825 17.4195 46.7183 15.9042 45.6328C12.7989 43.4135 11.0531 40.4041 11.0503 37.2657C11.0475 34.1274 12.7879 31.1163 15.8892 28.8943L36.5012 14.167L57.1122 28.8943C60.2141 31.116 61.955 34.1271 61.9519 37.2657C61.9494 40.4041 60.2034 43.4135 57.0978 45.6328C55.5826 46.7183 53.7857 47.5825 51.8082 48.177C51.7025 48.2077 51.5863 48.2137 51.4758 48.1943C51.3655 48.1749 51.2664 48.1308 51.1928 48.069C51.1193 48.0068 51.0749 47.9298 51.0666 47.8486C51.058 47.7676 51.0855 47.6866 51.1454 47.6174C53.777 44.5673 55.1948 41.0623 55.2461 37.4794C55.2461 37.3396 55.2071 37.2013 55.132 37.0721C55.0567 36.9428 54.9468 36.8257 54.8081 36.7267L45.0591 29.3376C44.9619 29.2797 44.8397 29.248 44.7131 29.248C44.5869 29.248 44.4645 29.2797 44.3675 29.3376C44.2703 29.3952 44.205 29.4757 44.1823 29.5646C44.1595 29.6535 44.1812 29.7449 44.2436 29.8236C48.03 34.7198 44.774 41.7525 39.3442 45.6328L39.3157 45.6534C38.5663 46.1831 37.5545 46.4801 36.5004 46.4798C35.4463 46.4795 34.4347 46.182 33.6859 45.652L33.6596 45.6328C28.2278 41.7525 24.9735 34.7205 28.7605 29.8246C28.8229 29.7459 28.8446 29.6546 28.8218 29.5656C28.7993 29.4768 28.7336 29.3963 28.6366 29.3386C28.5396 29.2808 28.4172 29.249 28.291 29.249C28.1646 29.249 28.0422 29.2808 27.9452 29.3386L18.1941 36.727Z" fill="#F53838"/>
<path d="M106.409 30.3636C106.409 32.9015 105.928 35.0606 104.966 36.8409C104.011 38.6212 102.708 39.9811 101.057 40.9205C99.4129 41.8523 97.5644 42.3182 95.5114 42.3182C93.4432 42.3182 91.5871 41.8485 89.9432 40.9091C88.2992 39.9697 87 38.6098 86.0455 36.8295C85.0909 35.0492 84.6136 32.8939 84.6136 30.3636C84.6136 27.8258 85.0909 25.6667 86.0455 23.8864C87 22.1061 88.2992 20.75 89.9432 19.8182C91.5871 18.8788 93.4432 18.4091 95.5114 18.4091C97.5644 18.4091 99.4129 18.8788 101.057 19.8182C102.708 20.75 104.011 22.1061 104.966 23.8864C105.928 25.6667 106.409 27.8258 106.409 30.3636ZM101.42 30.3636C101.42 28.7197 101.174 27.3333 100.682 26.2045C100.197 25.0758 99.5114 24.2197 98.625 23.6364C97.7386 23.053 96.7008 22.7614 95.5114 22.7614C94.322 22.7614 93.2841 23.053 92.3977 23.6364C91.5114 24.2197 90.822 25.0758 90.3295 26.2045C89.8447 27.3333 89.6023 28.7197 89.6023 30.3636C89.6023 32.0076 89.8447 33.3939 90.3295 34.5227C90.822 35.6515 91.5114 36.5076 92.3977 37.0909C93.2841 37.6742 94.322 37.9659 95.5114 37.9659C96.7008 37.9659 97.7386 37.6742 98.625 37.0909C99.5114 36.5076 100.197 35.6515 100.682 34.5227C101.174 33.3939 101.42 32.0076 101.42 30.3636ZM117.849 42.3409C116.062 42.3409 114.524 41.9621 113.236 41.2045C111.955 40.4394 110.971 39.3788 110.281 38.0227C109.599 36.6667 109.259 35.1061 109.259 33.3409C109.259 31.553 109.603 29.9848 110.293 28.6364C110.99 27.2803 111.978 26.2235 113.259 25.4659C114.539 24.7008 116.062 24.3182 117.827 24.3182C119.349 24.3182 120.683 24.5947 121.827 25.1477C122.971 25.7008 123.876 26.4773 124.543 27.4773C125.209 28.4773 125.577 29.6515 125.645 31H121.077C120.948 30.1288 120.607 29.428 120.054 28.8977C119.509 28.3598 118.793 28.0909 117.906 28.0909C117.156 28.0909 116.501 28.2955 115.94 28.7045C115.387 29.1061 114.955 29.6932 114.645 30.4659C114.334 31.2386 114.179 32.1742 114.179 33.2727C114.179 34.3864 114.33 35.3333 114.634 36.1136C114.944 36.8939 115.38 37.4886 115.94 37.8977C116.501 38.3068 117.156 38.5114 117.906 38.5114C118.459 38.5114 118.955 38.3977 119.395 38.1705C119.842 37.9432 120.209 37.6136 120.497 37.1818C120.793 36.7424 120.986 36.2159 121.077 35.6023H125.645C125.569 36.9356 125.205 38.1098 124.554 39.125C123.91 40.1326 123.02 40.9205 121.884 41.4886C120.747 42.0568 119.402 42.3409 117.849 42.3409ZM138.028 24.5455V28.1818H127.517V24.5455H138.028ZM129.903 20.3636H134.744V36.6364C134.744 37.0833 134.813 37.4318 134.949 37.6818C135.085 37.9242 135.275 38.0947 135.517 38.1932C135.767 38.2917 136.055 38.3409 136.381 38.3409C136.608 38.3409 136.835 38.322 137.062 38.2841C137.29 38.2386 137.464 38.2045 137.585 38.1818L138.347 41.7841C138.104 41.8598 137.763 41.947 137.324 42.0455C136.884 42.1515 136.35 42.2159 135.722 42.2386C134.555 42.2841 133.532 42.1288 132.653 41.7727C131.782 41.4167 131.104 40.8636 130.619 40.1136C130.134 39.3636 129.896 38.4167 129.903 37.2727V20.3636ZM146.159 42.3295C145.045 42.3295 144.053 42.1364 143.182 41.75C142.311 41.3561 141.621 40.7765 141.114 40.0114C140.614 39.2386 140.364 38.2765 140.364 37.125C140.364 36.1553 140.542 35.3409 140.898 34.6818C141.254 34.0227 141.739 33.4924 142.352 33.0909C142.966 32.6894 143.663 32.3864 144.443 32.1818C145.231 31.9773 146.057 31.8333 146.92 31.75C147.936 31.6439 148.754 31.5455 149.375 31.4545C149.996 31.3561 150.447 31.2121 150.727 31.0227C151.008 30.8333 151.148 30.553 151.148 30.1818V30.1136C151.148 29.3939 150.92 28.8371 150.466 28.4432C150.019 28.0492 149.383 27.8523 148.557 27.8523C147.686 27.8523 146.992 28.0455 146.477 28.4318C145.962 28.8106 145.621 29.2879 145.455 29.8636L140.977 29.5C141.205 28.4394 141.652 27.5227 142.318 26.75C142.985 25.9697 143.845 25.3712 144.898 24.9545C145.958 24.5303 147.186 24.3182 148.58 24.3182C149.549 24.3182 150.477 24.4318 151.364 24.6591C152.258 24.8864 153.049 25.2386 153.739 25.7159C154.436 26.1932 154.985 26.8068 155.386 27.5568C155.788 28.2992 155.989 29.1894 155.989 30.2273V42H151.398V39.5795H151.261C150.981 40.125 150.606 40.6061 150.136 41.0227C149.667 41.4318 149.102 41.7538 148.443 41.9886C147.784 42.2159 147.023 42.3295 146.159 42.3295ZM147.545 38.9886C148.258 38.9886 148.886 38.8485 149.432 38.5682C149.977 38.2803 150.405 37.8939 150.716 37.4091C151.027 36.9242 151.182 36.375 151.182 35.7614V33.9091C151.03 34.0076 150.822 34.0985 150.557 34.1818C150.299 34.2576 150.008 34.3295 149.682 34.3977C149.356 34.4583 149.03 34.5152 148.705 34.5682C148.379 34.6136 148.083 34.6553 147.818 34.6932C147.25 34.7765 146.754 34.9091 146.33 35.0909C145.905 35.2727 145.576 35.5189 145.341 35.8295C145.106 36.1326 144.989 36.5114 144.989 36.9659C144.989 37.625 145.227 38.1288 145.705 38.4773C146.189 38.8182 146.803 38.9886 147.545 38.9886ZM175.392 24.5455L169.29 42H163.835L157.733 24.5455H162.847L166.472 37.0341H166.653L170.267 24.5455H175.392ZM182.165 18.7273L187.79 36.4091H188.006L193.642 18.7273H199.097L191.074 42H184.733L176.699 18.7273H182.165ZM201.898 42V18.7273H211.08C212.845 18.7273 214.348 19.0644 215.591 19.7386C216.833 20.4053 217.78 21.3333 218.432 22.5227C219.091 23.7045 219.42 25.0682 219.42 26.6136C219.42 28.1591 219.087 29.5227 218.42 30.7045C217.754 31.8864 216.788 32.8068 215.523 33.4659C214.265 34.125 212.742 34.4545 210.955 34.4545H205.102V30.5114H210.159C211.106 30.5114 211.886 30.3485 212.5 30.0227C213.121 29.6894 213.583 29.2311 213.886 28.6477C214.197 28.0568 214.352 27.3788 214.352 26.6136C214.352 25.8409 214.197 25.1667 213.886 24.5909C213.583 24.0076 213.121 23.5568 212.5 23.2386C211.879 22.9129 211.091 22.75 210.136 22.75H206.818V42H201.898ZM242.082 18.7273V42H237.832L227.707 27.3523H227.537V42H222.616V18.7273H226.935L236.98 33.3636H237.185V18.7273H242.082Z" fill="black"/>
</svg>
